<?xml version="1.0" encoding="UTF-8"?>
<svg version="1.1" xmlns="http://www.w3.org/2000/svg" width="48" height="48">
<path d="M0 0 C1.14984375 -0.01546875 2.2996875 -0.0309375 3.484375 -0.046875 C10.15407189 -0.01613907 14.75762023 0.20571019 20 4.5 C25.00855939 10.61434523 24.60301136 16.84282209 24.5 24.5 C24.51546875 25.64984375 24.5309375 26.7996875 24.546875 27.984375 C24.51613907 34.65407189 24.29428981 39.25762023 20 44.5 C13.88565477 49.50855939 7.65717791 49.10301136 0 49 C-1.14984375 49.01546875 -2.2996875 49.0309375 -3.484375 49.046875 C-10.15407189 49.01613907 -14.75762023 48.79428981 -20 44.5 C-25.00855939 38.38565477 -24.60301136 32.15717791 -24.5 24.5 C-24.51546875 23.35015625 -24.5309375 22.2003125 -24.546875 21.015625 C-24.51613907 14.34592811 -24.29428981 9.74237977 -20 4.5 C-13.88565477 -0.50855939 -7.65717791 -0.10301136 0 0 Z " fill="#282A36" transform="translate(24,-0.5)"/>
<path d="M0 0 C1.14984375 -0.00386719 2.2996875 -0.00773438 3.484375 -0.01171875 C4.68578125 -0.00011719 5.8871875 0.01148438 7.125 0.0234375 C8.32640625 0.01183594 9.5278125 0.00023437 10.765625 -0.01171875 C12.49039062 -0.00591797 12.49039062 -0.00591797 14.25 0 C15.83167969 0.00507568 15.83167969 0.00507568 17.4453125 0.01025391 C20.125 0.3984375 20.125 0.3984375 21.96508789 1.55615234 C24.60840554 5.75452637 23.59080909 11.60133326 23.5625 16.3984375 C23.5924707 18.20054688 23.5924707 18.20054688 23.62304688 20.0390625 C23.62240234 21.18890625 23.62175781 22.33875 23.62109375 23.5234375 C23.62387329 25.10511719 23.62387329 25.10511719 23.62670898 26.71875 C23.125 29.3984375 23.125 29.3984375 21.45361328 31.24072266 C18.58886307 32.66498828 16.56651398 32.78614096 13.37109375 32.796875 C12.26958984 32.80074219 11.16808594 32.80460937 10.03320312 32.80859375 C8.88787109 32.79699219 7.74253906 32.78539062 6.5625 32.7734375 C5.41330078 32.78503906 4.26410156 32.79664063 3.08007812 32.80859375 C1.97986328 32.80472656 0.87964844 32.80085938 -0.25390625 32.796875 C-1.2601001 32.79349121 -2.26629395 32.79010742 -3.30297852 32.78662109 C-5.875 32.3984375 -5.875 32.3984375 -7.70141602 31.24072266 C-9.37046615 28.62065768 -9.26351442 26.61565742 -9.2734375 23.5234375 C-9.27730469 22.37359375 -9.28117188 21.22375 -9.28515625 20.0390625 C-9.27355469 18.83765625 -9.26195312 17.63625 -9.25 16.3984375 C-9.26160156 15.19703125 -9.27320313 13.995625 -9.28515625 12.7578125 C-9.28128906 11.60796875 -9.27742187 10.458125 -9.2734375 9.2734375 C-9.27005371 8.21898437 -9.26666992 7.16453125 -9.26318359 6.078125 C-8.875 3.3984375 -8.875 3.3984375 -7.71728516 1.55615234 C-5.09586456 -0.09118088 -3.082399 0.00989156 0 0 Z " fill="#2B2D39" transform="translate(16.875,7.6015625)"/>
<path d="M0 0 C1.14984375 -0.00386719 2.2996875 -0.00773438 3.484375 -0.01171875 C4.68578125 -0.00011719 5.8871875 0.01148438 7.125 0.0234375 C8.32640625 0.01183594 9.5278125 0.00023437 10.765625 -0.01171875 C12.49039062 -0.00591797 12.49039062 -0.00591797 14.25 0 C15.83167969 0.00507568 15.83167969 0.00507568 17.4453125 0.01025391 C20.125 0.3984375 20.125 0.3984375 21.96508789 1.55615234 C24.60840554 5.75452637 23.59080909 11.60133326 23.5625 16.3984375 C23.5924707 18.20054688 23.5924707 18.20054688 23.62304688 20.0390625 C23.62240234 21.18890625 23.62175781 22.33875 23.62109375 23.5234375 C23.62387329 25.10511719 23.62387329 25.10511719 23.62670898 26.71875 C23.125 29.3984375 23.125 29.3984375 21.45361328 31.24072266 C18.58886307 32.66498828 16.56651398 32.78614096 13.37109375 32.796875 C12.26958984 32.80074219 11.16808594 32.80460937 10.03320312 32.80859375 C8.88787109 32.79699219 7.74253906 32.78539062 6.5625 32.7734375 C5.41330078 32.78503906 4.26410156 32.79664063 3.08007812 32.80859375 C1.97986328 32.80472656 0.87964844 32.80085938 -0.25390625 32.796875 C-1.2601001 32.79349121 -2.26629395 32.79010742 -3.30297852 32.78662109 C-5.875 32.3984375 -5.875 32.3984375 -7.70141602 31.24072266 C-9.37046615 28.62065768 -9.26351442 26.61565742 -9.2734375 23.5234375 C-9.27730469 22.37359375 -9.28117188 21.22375 -9.28515625 20.0390625 C-9.27355469 18.83765625 -9.26195312 17.63625 -9.25 16.3984375 C-9.26160156 15.19703125 -9.27320313 13.995625 -9.28515625 12.7578125 C-9.28128906 11.60796875 -9.27742187 10.458125 -9.2734375 9.2734375 C-9.27005371 8.21898437 -9.26666992 7.16453125 -9.26318359 6.078125 C-8.875 3.3984375 -8.875 3.3984375 -7.71728516 1.55615234 C-5.09586456 -0.09118088 -3.082399 0.00989156 0 0 Z M-5.875 4.3984375 C-5.96237645 6.25213361 -5.98198153 8.10911291 -5.97265625 9.96484375 C-5.96943359 11.08955078 -5.96621094 12.21425781 -5.96289062 13.37304688 C-5.95451172 14.55705078 -5.94613281 15.74105469 -5.9375 16.9609375 C-5.93298828 18.14880859 -5.92847656 19.33667969 -5.92382812 20.56054688 C-5.91199675 23.50655976 -5.89551287 26.45247431 -5.875 29.3984375 C-1.72918113 29.42730501 2.41661216 29.44519077 6.5625 29.4609375 C7.74650391 29.46931641 8.93050781 29.47769531 10.15039062 29.48632812 C11.27509766 29.48955078 12.39980469 29.49277344 13.55859375 29.49609375 C15.12178345 29.50394897 15.12178345 29.50394897 16.71655273 29.51196289 C19.07628747 29.67149306 19.07628747 29.67149306 20.125 28.3984375 C20.22446453 26.62984557 20.25580217 24.85732299 20.2578125 23.0859375 C20.25910156 22.01085937 20.26039062 20.93578125 20.26171875 19.828125 C20.25591797 18.13042969 20.25591797 18.13042969 20.25 16.3984375 C20.25580078 14.70074219 20.25580078 14.70074219 20.26171875 12.96875 C20.25978516 11.35613281 20.25978516 11.35613281 20.2578125 9.7109375 C20.25668457 8.71707031 20.25555664 7.72320312 20.25439453 6.69921875 C20.3833433 4.43468524 20.3833433 4.43468524 19.125 3.3984375 C17.35640807 3.29897297 15.58388549 3.26763533 13.8125 3.265625 C12.73742187 3.26433594 11.66234375 3.26304688 10.5546875 3.26171875 C9.42289063 3.26558594 8.29109375 3.26945313 7.125 3.2734375 C5.99320313 3.26957031 4.86140625 3.26570312 3.6953125 3.26171875 C2.62023437 3.26300781 1.54515625 3.26429687 0.4375 3.265625 C-0.55636719 3.26675293 -1.55023438 3.26788086 -2.57421875 3.26904297 C-4.83875226 3.1400942 -4.83875226 3.1400942 -5.875 4.3984375 Z " fill="#E9E9E5" transform="translate(16.875,7.6015625)"/>
<path d="M0 0 C1.97909398 -0.02686553 3.95828971 -0.04633375 5.9375 -0.0625 C7.03964844 -0.07410156 8.14179687 -0.08570313 9.27734375 -0.09765625 C12 0 12 0 13 1 C13.09946453 2.76859193 13.13080217 4.54111451 13.1328125 6.3125 C13.13474609 7.92511719 13.13474609 7.92511719 13.13671875 9.5703125 C13.13285156 10.70210937 13.12898438 11.83390625 13.125 13 C13.12886719 14.13179687 13.13273437 15.26359375 13.13671875 16.4296875 C13.13542969 17.50476563 13.13414063 18.57984375 13.1328125 19.6875 C13.13168457 20.68136719 13.13055664 21.67523438 13.12939453 22.69921875 C13 25 13 25 12 26 C10.48071962 26.07179964 8.95832518 26.08392007 7.4375 26.0625 C6.61121094 26.05347656 5.78492188 26.04445313 4.93359375 26.03515625 C3.97646484 26.01775391 3.97646484 26.01775391 3 26 C6.46188341 19.19987188 6.46188341 19.19987188 9.1875 18.1875 C9.785625 18.125625 10.38375 18.06375 11 18 C11.33 17.34 11.66 16.68 12 16 C7.39257135 17.21044132 7.39257135 17.21044132 3 19 C2.49666458 16.39643759 1.99720622 13.79223349 1.5 11.1875 C1.35691406 10.44951172 1.21382812 9.71152344 1.06640625 8.95117188 C0.49073719 5.92205609 0 3.090804 0 0 Z " fill="#2A2C38" transform="translate(24,11)"/>
<path d="M0 0 C0.99 0.33 1.98 0.66 3 1 C4.69867188 1.14777936 6.40177489 1.24747066 8.10546875 1.31640625 C9.57983398 1.37924805 9.57983398 1.37924805 11.08398438 1.44335938 C12.62022461 1.50233398 12.62022461 1.50233398 14.1875 1.5625 C15.74114258 1.62727539 15.74114258 1.62727539 17.32617188 1.69335938 C19.8839819 1.79944366 22.44188845 1.90150146 25 2 C25 2.33 25 2.66 25 3 C17.08 3.33 9.16 3.66 1 4 C0.67 12.25 0.34 20.5 0 29 C7.92 29 15.84 29 24 29 C24 29.33 24 29.66 24 30 C16.74 30 9.48 30 2 30 C2 30.66 2 31.32 2 32 C-1.875 30.125 -1.875 30.125 -3 29 C-3.28150942 24.71508535 -3.23182832 20.41805904 -3.25 16.125 C-3.270625 14.91457031 -3.29125 13.70414063 -3.3125 12.45703125 C-3.31765625 11.29816406 -3.3228125 10.13929687 -3.328125 8.9453125 C-3.3374707 7.87812988 -3.34681641 6.81094727 -3.35644531 5.71142578 C-3 3 -3 3 -1.47949219 1.12841797 C-0.99125977 0.75604004 -0.50302734 0.38366211 0 0 Z " fill="#CBCCC9" transform="translate(11,8)"/>
<path d="M0 0 C0.66 0 1.32 0 2 0 C2.48066535 1.89545392 2.95946743 3.79138039 3.4375 5.6875 C3.83775391 7.27111328 3.83775391 7.27111328 4.24609375 8.88671875 C4.89897932 11.5828317 5.47941193 14.2757576 6 17 C6.66 16.34 7.32 15.68 8 15 C11.125 14.875 11.125 14.875 14 15 C13.67 15.99 13.34 16.98 13 18 C12.360625 18.144375 11.72125 18.28875 11.0625 18.4375 C8.79688294 18.80104993 8.79688294 18.80104993 7.75 21.0625 C7.5025 21.701875 7.255 22.34125 7 23 C6.01 23 5.02 23 4 23 C2.54815522 18.46298506 1.76490804 14.81938524 2 10 C1.34 10 0.68 10 0 10 C0.020625 10.969375 0.04125 11.93875 0.0625 12.9375 C0 16 0 16 -1 17 C-3.67058851 17.14115161 -6.32432238 17.04247107 -9 17 C-9 16.34 -9 15.68 -9 15 C-7.02 15 -5.04 15 -3 15 C-2.814375 13.2365625 -2.814375 13.2365625 -2.625 11.4375 C-2.13564065 7.45879574 -1.1944795 3.82233441 0 0 Z " fill="#DEDEDB" transform="translate(22,12)"/>
<path d="M0 0 C0.66 0 1.32 0 2 0 C2.12117188 0.92683594 2.24234375 1.85367187 2.3671875 2.80859375 C2.53476562 4.00613281 2.70234375 5.20367187 2.875 6.4375 C3.03742187 7.63246094 3.19984375 8.82742187 3.3671875 10.05859375 C3.57601563 11.02925781 3.78484375 11.99992187 4 13 C4.66 13.33 5.32 13.66 6 14 C5 15 5 15 1.40234375 15.09765625 C-0.08596867 15.0909822 -1.57426432 15.07902183 -3.0625 15.0625 C-4.20041992 15.05573242 -4.20041992 15.05573242 -5.36132812 15.04882812 C-7.24091871 15.0370068 -9.12046899 15.01907078 -11 15 C-11 12.69 -11 10.38 -11 8 C-7.7 7.34 -4.4 6.68 -1 6 C-0.67 4.02 -0.34 2.04 0 0 Z " fill="#343641" transform="translate(22,22)"/>
<path d="M0 0 C0.33 1.32 0.66 2.64 1 4 C-1.64 4 -4.28 4 -7 4 C-7 3.34 -7 2.68 -7 2 C-4.69 1.34 -2.38 0.68 0 0 Z " fill="#F8F8F2" transform="translate(20,25)"/>
<path d="M0 0 C0.99 0.33 1.98 0.66 3 1 C1.35 2.65 -0.3 4.3 -2 6 C-2.33 5.01 -2.66 4.02 -3 3 C-2.01 2.01 -1.02 1.02 0 0 Z " fill="#E0E1DD" transform="translate(11,8)"/>
</svg>
